<svg id="Layer_1" enable-background="new 0 0 512 512" height="512" viewBox="0 0 512 512" width="512" xmlns="http://www.w3.org/2000/svg"><g><path d="m88.692 167.5h-64.384c-9.283 0-16.808-7.525-16.808-16.808v-126.384c0-9.283 7.525-16.808 16.808-16.808h64.385c9.283 0 16.808 7.525 16.808 16.808v126.385c-.001 9.282-7.526 16.807-16.809 16.807z" fill="#e4f7fc"/><path d="m88.692 7.5h-30c9.283 0 16.808 7.525 16.808 16.808v126.385c0 9.283-7.525 16.808-16.808 16.808h30c9.283 0 16.808-7.525 16.808-16.808v-126.385c0-9.283-7.525-16.808-16.808-16.808z" fill="#d1f2fe"/><path d="m330.788 124.5h-149.576c-3.983 0-7.212-3.229-7.212-7.212v-102.576c0-3.983 3.229-7.212 7.212-7.212h149.577c3.983 0 7.212 3.229 7.212 7.212v102.577c-.001 3.982-3.23 7.211-7.213 7.211z" fill="#e4f7fc"/><path d="m330.788 7.5h-30c3.983 0 7.212 3.229 7.212 7.211v102.577c0 3.983-3.229 7.211-7.212 7.211h30c3.983 0 7.212-3.229 7.212-7.211v-102.577c0-3.982-3.229-7.211-7.212-7.211z" fill="#d1f2fe"/><path d="m234.846 124.5h44v30h-44z" fill="#7b727b"/><path d="m487.692 167.5h-64.385c-9.283 0-16.808-7.525-16.808-16.808v-126.384c0-9.283 7.525-16.808 16.808-16.808h64.385c9.283 0 16.808 7.525 16.808 16.808v126.385c0 9.282-7.525 16.807-16.808 16.807z" fill="#e4f7fc"/><path d="m487.692 7.5h-30c9.283 0 16.808 7.525 16.808 16.808v126.385c0 9.283-7.525 16.808-16.808 16.808h30c9.283 0 16.808-7.525 16.808-16.808v-126.385c0-9.283-7.525-16.808-16.808-16.808z" fill="#d1f2fe"/><path d="m219.294 512h73.412c2.67 0 4.612-2.534 3.918-5.112l-40.624-150.888-40.624 150.888c-.694 2.578 1.248 5.112 3.918 5.112z" fill="#7b727b"/><path d="m256 356-9.13 33.913 21.13 122.087h24.706c2.67 0 4.612-2.534 3.918-5.112z" fill="#686169"/><circle cx="256" cy="374.356" fill="#ff9154" r="30"/><path d="m256 344.356c-5.466 0-10.586 1.469-15 4.023 8.964 5.188 15 14.874 15 25.977s-6.036 20.789-15 25.977c4.414 2.554 9.534 4.023 15 4.023 16.569 0 30-13.431 30-30s-13.431-30-30-30z" fill="#ff7f3e"/><g fill="#71c5ff"><path d="m256.083 301.758c-26.509 0-50.378 14.721-62.292 38.418-1.861 3.701-.369 8.209 3.332 10.07 3.7 1.86 8.209.369 10.069-3.332 9.352-18.602 28.085-30.156 48.891-30.156 20.827 0 40.154 12.116 49.238 30.867 1.295 2.675 3.97 4.232 6.755 4.232 1.097 0 2.211-.242 3.265-.752 3.728-1.807 5.286-6.292 3.479-10.02-11.573-23.89-36.199-39.327-62.737-39.327z"/><path d="m311.542 284.551c-16.551-10.582-35.729-16.176-55.458-16.176-39.21 0-74.513 21.775-92.131 56.827-1.86 3.701-.368 8.209 3.333 10.069 3.701 1.859 8.209.368 10.069-3.333 15.056-29.955 45.223-48.563 78.729-48.563 33.535 0 64.663 19.509 79.302 49.7 1.296 2.673 3.97 4.229 6.754 4.229 1.098 0 2.213-.242 3.267-.753 3.728-1.808 5.284-6.294 3.477-10.021-8.324-17.165-21.237-31.681-37.342-41.979z"/><path d="m331.718 252.934c-22.571-14.433-48.725-22.062-75.634-22.062-26.551 0-52.408 7.441-74.777 21.52-21.757 13.693-39.352 33.051-50.882 55.98-1.861 3.7-.369 8.209 3.331 10.069 3.701 1.862 8.209.37 10.07-3.331 21.477-42.708 64.491-69.238 112.258-69.238 47.815 0 92.195 27.816 113.063 70.864 1.296 2.674 3.97 4.23 6.754 4.23 1.098 0 2.212-.242 3.266-.753 3.728-1.807 5.284-6.293 3.478-10.021-11.351-23.412-28.961-43.213-50.927-57.258z"/><path d="m409.819 297.036c-13.792-28.442-35.187-52.495-61.87-69.556-27.414-17.527-59.181-26.792-91.866-26.792-32.254 0-63.665 9.038-90.836 26.138-26.433 16.634-47.806 40.148-61.809 68.001-1.861 3.701-.369 8.209 3.332 10.07 3.7 1.859 8.209.369 10.069-3.332 26.631-52.971 79.986-85.877 139.244-85.877 59.302 0 114.349 34.5 140.239 87.893 1.296 2.673 3.97 4.229 6.754 4.229 1.098 0 2.213-.242 3.267-.754 3.727-1.806 5.283-6.292 3.476-10.02z"/></g><g fill="#686169"><g><path d="m63.5 136.5h-14c-4.142 0-7.5 3.357-7.5 7.5s3.358 7.5 7.5 7.5h14c4.142 0 7.5-3.357 7.5-7.5s-3.358-7.5-7.5-7.5z"/><path d="m88.692 0h-64.384c-13.404 0-24.308 10.904-24.308 24.308v126.385c0 13.403 10.904 24.307 24.308 24.307h64.385c13.403 0 24.307-10.904 24.307-24.308v-126.384c0-13.404-10.904-24.308-24.308-24.308zm9.308 150.692c0 5.132-4.175 9.308-9.308 9.308h-64.384c-5.132 0-9.308-4.176-9.308-9.308v-126.384c0-5.132 4.175-9.308 9.308-9.308h64.385c5.132 0 9.307 4.176 9.307 9.308z"/></g><g><path d="m298 147h-84c-4.142 0-7.5 3.357-7.5 7.5s3.358 7.5 7.5 7.5h84c4.142 0 7.5-3.357 7.5-7.5s-3.358-7.5-7.5-7.5z"/><path d="m330.789 0h-149.578c-8.111 0-14.711 6.6-14.711 14.712v102.576c0 8.112 6.6 14.712 14.711 14.712h149.577c8.112 0 14.711-6.6 14.711-14.712v-102.576c.001-8.112-6.599-14.712-14.71-14.712zm-.289 117h-149v-102h149z"/></g><g><path d="m462.5 136.5h-14c-4.142 0-7.5 3.357-7.5 7.5s3.358 7.5 7.5 7.5h14c4.142 0 7.5-3.357 7.5-7.5s-3.358-7.5-7.5-7.5z"/><path d="m487.692 0h-64.385c-13.403 0-24.307 10.904-24.307 24.308v126.385c0 13.403 10.904 24.307 24.308 24.307h64.385c13.403 0 24.307-10.904 24.307-24.308v-126.384c0-13.404-10.904-24.308-24.308-24.308zm9.308 150.692c0 5.132-4.175 9.308-9.308 9.308h-64.385c-5.132 0-9.308-4.176-9.308-9.308v-126.384c0-5.132 4.175-9.308 9.308-9.308h64.385c5.132 0 9.308 4.176 9.308 9.308z"/></g></g></g></svg>